<?xml version="1.0" encoding="UTF-8" standalone="no"?>
<!-- Created with Inkscape (http://www.inkscape.org/) -->

<svg
   width="64"
   height="64"
   viewBox="0 0 64 64"
   version="1.1"
   id="svg5"
   xmlns="http://www.w3.org/2000/svg"
   xmlns:svg="http://www.w3.org/2000/svg">
  <defs
     id="defs2" />
  <path
     id="path2071"
     style="display:inline;opacity:0.2;fill:#000000;fill-opacity:1"
     d="M 6.8,6 H 19 L 32,19 45,6 H 57.2 C 58.7512,6 60,7.2488 60,8.8 V 21 L 47,34 60,47 V 59.2 C 60,60.7512 58.7512,62 57.2,62 H 45 L 32,49 19,62 H 6.8 C 5.2488,62 4,60.7512 4,59.2 V 47 L 17,34 4,21 V 8.8 C 4,7.2488 5.2488,6 6.8,6 Z" />
  <path
     id="path1525"
     style="display:inline;opacity:1;fill:#cacdd0;fill-opacity:1"
     d="M 6.8,4 H 19 L 32,17 45,4 H 57.2 C 58.7512,4 60,5.2488 60,6.8 V 19 L 47,32 60,45 V 57.2 C 60,58.7512 58.7512,60 57.2,60 H 45 L 32,47 19,60 H 6.8 C 5.2488,60 4,58.7512 4,57.2 V 45 L 17,32 4,19 V 6.8 C 4,5.2488 5.2488,4 6.8,4 Z" />
  <path
     style="fill:#ffffff;fill-opacity:1"
     d="m 19.265639,12 c 0,2.333333 0,4.666667 0,7 2.231142,2.071372 4.462284,4.142746 6.693427,6.214118 -5.298974,2.146587 -9.893907,7.028458 -10.360676,12.974994 -0.602508,5.384451 1.569479,11.291856 6.314549,14.134776 4.749288,2.895671 10.731232,3.227551 16.009445,1.811147 4.911267,-1.323001 9.010622,-5.414583 10.061297,-10.483242 C 49.272159,38.371163 47.689565,32.66899 44.253577,28.551675 41.920246,25.700707 39.055848,23.371943 36.265639,21 c 2.999999,0 6,0 9,0 0,-3 0,-6.000001 0,-9 -8.666667,0 -17.333334,0 -26,0 z m 7.797103,6.026807 c 0.982835,-0.316709 0.519571,0.924464 0,0 z m 13.20331,13.065161 c 0.08846,0.106812 0.0097,0.0343 0,0 z m -6.884374,1.069949 c 2.609216,2.463217 4.482174,6.150723 3.606054,9.82402 -0.195552,1.800784 -1.585523,3.362324 -3.409454,3.531711 -2.24078,0.408349 -5.160867,0.01998 -6.197482,-2.335341 -1.272031,-2.892596 -0.654826,-6.59429 1.839777,-8.632671 1.188746,-1.108732 2.643928,-1.855289 4.161105,-2.387719 z m 8.860499,2.740641 c 0.05508,0.10572 -0.0036,0.02996 0,0 z m 0.363358,9.27224 c -0.0089,0.08066 -0.01717,0.01285 0,0 z"
     id="path2651" />
  <path
     d="m 40.164997,39.870323 c 0.0127,-4.324061 -2.640887,-8.131383 -5.741858,-10.883862 -1.349474,-0.663815 -3.113439,0.901234 -4.511707,1.412728 -3.523492,1.844448 -6.364384,5.544622 -6.14194,9.703314 -0.03712,2.983214 1.21005,6.223041 3.979392,7.615906 2.412138,1.21937 5.349264,1.19863 7.875587,0.355171 2.501122,-0.855556 4.069105,-3.355798 4.36653,-5.925559 0.121082,-0.752575 0.173982,-1.51553 0.173996,-2.277698 z M 33.010294,18.249842 c -1.160793,0.130255 -3.746753,-0.430587 -4.084012,-0.01262 3.837509,3.515129 7.779638,6.916428 11.517107,10.540653 3.228998,3.171024 5.456276,7.677507 4.927557,12.3149 -0.23916,4.148817 -2.882727,8.063519 -6.744615,9.587322 -3.874643,1.587685 -8.317167,1.605024 -12.297469,0.405402 -3.554249,-1.053145 -6.534498,-3.968221 -7.388618,-7.650512 -0.990699,-3.838767 -0.380752,-8.243627 2.326429,-11.247757 2.627083,-3.065053 6.427161,-4.759789 10.184621,-5.937063 -2.960246,-2.773118 -5.920493,-5.546236 -8.880739,-8.319354 0,-0.973454 0,-1.946906 0,-2.92036 6.80207,0 13.604141,0 20.406211,0 0,1.079797 0,2.159594 0,3.23939 -3.322157,0 -6.644314,1e-6 -9.966472,1e-6 z"
     style="fill:#0f56d9;fill-opacity:1"
     id="path1540" />
</svg>
